<?xml version="1.0" standalone="no"?>
<svg viewBox="0 0 200 200" xmlns="http://www.w3.org/2000/svg">
  <path fill="#00FF37" d="M44.5,-75.2C58,-69.4,69.4,-58,76.7,-44.6C84,-31.1,87.1,-15.6,87.4,0.2C87.8,15.9,85.3,31.9,76.7,43C68,54.1,53.2,60.3,39.4,68.6C25.6,76.9,12.8,87.3,-1.3,89.5C-15.3,91.6,-30.7,85.7,-44.9,77.6C-59.1,69.5,-72.1,59.3,-77.7,46.1C-83.3,32.8,-81.4,16.4,-80.7,0.4C-79.9,-15.5,-80.2,-31,-75.1,-45C-69.9,-59.1,-59.3,-71.6,-45.8,-77.4C-32.4,-83.2,-16.2,-82.3,-0.3,-81.7C15.5,-81.1,31.1,-80.9,44.5,-75.2Z" transform="translate(100 100)" />
</svg>
