<?xml version="1.0" standalone="no"?>
<svg viewBox="0 0 200 200" xmlns="http://www.w3.org/2000/svg">
<linearGradient id="grad1" x1="0%" y1="0%" x2="100%" y2="0%">
<stop offset="0%" style="stop-color:#095ded;stop-opacity:1" />
<stop offset="100%" style="stop-color:#00ff37;stop-opacity:1" />
</linearGradient>
<path fill="url(#grad1)" d="M40.9,-69.1C53.7,-63.4,65.4,-54,70.9,-41.8C76.5,-29.7,75.9,-14.8,75.8,-0.1C75.7,14.7,76.1,29.4,70.5,41.5C65,53.6,53.4,63.1,40.7,69.8C27.9,76.5,14,80.4,-0.6,81.4C-15.1,82.4,-30.3,80.5,-43.3,74C-56.4,67.5,-67.4,56.4,-75.8,43.3C-84.2,30.2,-90,15.1,-88.5,0.8C-87.1,-13.4,-78.3,-26.8,-70.6,-41.1C-62.9,-55.4,-56.3,-70.7,-44.7,-77C-33.1,-83.4,-16.5,-80.8,-1.3,-78.7C14,-76.5,28,-74.7,40.9,-69.1Z" transform="translate(100 100)" />
</svg>
