<?xml version="1.0" standalone="no"?>
<svg viewBox="0 0 200 200" xmlns="http://www.w3.org/2000/svg">
  <path fill="#00FF37" d="M44.2,-76.3C56.5,-69.4,65.2,-56,72.6,-42.3C79.9,-28.5,85.9,-14.2,85.4,-0.3C85,13.7,78.1,27.4,71.1,41.8C64.1,56.2,56.9,71.2,45.1,78.8C33.2,86.4,16.6,86.6,0,86.6C-16.6,86.6,-33.3,86.5,-47.4,80.2C-61.5,73.9,-73.1,61.4,-79,47C-85,32.6,-85.3,16.3,-83.2,1.2C-81.1,-13.9,-76.5,-27.7,-69.3,-39.9C-62,-52,-52,-62.4,-40,-69.5C-28,-76.6,-14,-80.4,1,-82.1C15.9,-83.7,31.8,-83.2,44.2,-76.3Z" transform="translate(100 100)" />
</svg>
