<?xml version="1.0" standalone="no"?>
<svg viewBox="0 0 200 200" xmlns="http://www.w3.org/2000/svg">
  <path fill="#00FF37" d="M43.3,-73.1C57.5,-66.9,71.1,-57.9,76.9,-45.3C82.7,-32.7,80.6,-16.3,79.4,-0.7C78.2,14.9,77.9,29.9,72.3,42.8C66.6,55.6,55.6,66.4,42.7,74.3C29.7,82.1,14.9,87.1,0,87.1C-14.9,87.2,-29.9,82.4,-43.4,74.8C-56.8,67.3,-68.9,57,-74.8,44.1C-80.8,31.2,-80.6,15.6,-81.3,-0.4C-82,-16.4,-83.5,-32.7,-77,-44.7C-70.5,-56.7,-56,-64.3,-41.8,-70.6C-27.7,-76.8,-13.8,-81.8,0.4,-82.4C14.6,-83.1,29.2,-79.4,43.3,-73.1Z" transform="translate(100 100)" />
</svg>
